<svg width="14" height="16" viewBox="0 0 14 16" fill="none" xmlns="http://www.w3.org/2000/svg">
<path d="M12.9062 6.96875L13.5938 7.65625C13.875 7.96875 13.875 8.4375 13.5938 8.71875L7.53125 14.7812C7.21875 15.0938 6.75 15.0938 6.46875 14.7812L0.375 8.71875C0.09375 8.4375 0.09375 7.9375 0.375 7.65625L1.0625 6.96875C1.375 6.65625 1.84375 6.6875 2.15625 6.96875L5.75 10.75V1.75C5.75 1.34375 6.0625 1 6.5 1H7.5C7.90625 1 8.25 1.34375 8.25 1.75V10.75L11.8125 6.96875C12.125 6.6875 12.5938 6.65625 12.9062 6.96875Z" fill="white"/>
</svg>
