<svg width="17" height="14" viewBox="0 0 17 14" fill="none" xmlns="http://www.w3.org/2000/svg">
<path d="M3.98438 5.0999C3.79844 5.0999 3.63906 4.99365 3.58594 4.80771C3.45313 4.35615 3.4 3.90459 3.4 3.3999C3.4 2.92178 3.45313 2.47021 3.58594 2.01865C3.63906 1.83271 3.79844 1.6999 3.98438 1.6999H4.8875C5.17969 1.6999 5.39219 1.99209 5.28594 2.28428C5.15313 2.62959 5.07344 3.02803 5.07344 3.3999C5.07344 3.79834 5.15313 4.19678 5.28594 4.54209C5.39219 4.83428 5.17969 5.0999 4.8875 5.0999H3.98438ZM2.36406 0.637402C1.93906 1.46084 1.0625 3.71865 2.39063 6.18896C2.52344 6.48115 2.3375 6.7999 2.01875 6.7999H1.08906C0.929688 6.7999 0.770313 6.72021 0.690625 6.56084C0.0796875 5.23271 0 4.06396 0 3.3999C0 2.28428 0.239063 1.22178 0.664063 0.265527C0.74375 0.106152 0.903125 -9.799e-05 1.0625 -9.799e-05H1.99219C2.31094 -9.799e-05 2.52344 0.345215 2.36406 0.637402ZM16.3094 0.265527C16.7344 1.22178 17 2.28428 17 3.3999C17 4.54209 16.7344 5.60459 16.3094 6.56084C16.2297 6.72021 16.0703 6.7999 15.9109 6.7999H14.9813C14.6359 6.7999 14.45 6.48115 14.6094 6.18896C15.8844 3.79834 15.0875 1.54053 14.5828 0.637402C14.45 0.345215 14.6359 -9.799e-05 14.9547 -9.799e-05H15.9109C16.0703 -9.799e-05 16.2297 0.106152 16.3094 0.265527ZM12.9891 1.6999C13.175 1.6999 13.3344 1.83271 13.3875 2.01865C13.5203 2.47021 13.6 2.92178 13.6 3.3999C13.6 3.90459 13.5203 4.35615 13.3875 4.80771C13.3344 4.99365 13.175 5.0999 12.9891 5.0999H12.0859C11.7938 5.0999 11.5813 4.83428 11.6875 4.54209C11.8203 4.19678 11.9 3.79834 11.9 3.3999C11.9 3.02803 11.8203 2.62959 11.6875 2.28428C11.5813 1.99209 11.7938 1.6999 12.0859 1.6999H12.9891ZM9.88125 4.38271L13.3609 12.6968C13.4406 12.9093 13.3344 13.1749 13.1219 13.2546L12.3516 13.5733C12.1125 13.6796 11.8734 13.5733 11.7938 13.3608L10.4922 10.1999H6.48125L5.17969 13.3608C5.1 13.5733 4.86094 13.6796 4.62188 13.5733L3.85156 13.2546C3.63906 13.1749 3.53281 12.9093 3.6125 12.6968L7.09219 4.38271C6.90625 4.09053 6.8 3.77178 6.8 3.3999C6.8 2.47021 7.54375 1.6999 8.5 1.6999C9.42969 1.6999 10.1734 2.47021 10.1734 3.3999C10.1734 3.77178 10.0672 4.09053 9.88125 4.38271ZM7.19844 8.4999H9.775L8.5 5.41865L7.19844 8.4999Z" fill="#BD8951"/>
</svg>
