<svg width="165" height="39" viewBox="0 0 165 39" fill="none" xmlns="http://www.w3.org/2000/svg">
<path d="M14.636 28.1797C14.9532 28.4969 14.9079 29.0859 14.5 29.3125C10.9657 31.2156 6.47974 30.6719 3.53442 27.6813C0.543799 24.7359 4.88013e-05 20.25 1.90317 16.7156C2.12974 16.3078 2.7188 16.2625 3.03599 16.5797L8.33755 21.8812L9.56099 20.6125C9.51567 20.5219 9.51567 20.3859 9.51567 20.2953C9.51567 19.4797 10.15 18.8453 10.9657 18.8453C11.736 18.8453 12.4157 19.4797 12.4157 20.2953C12.4157 21.0656 11.736 21.7453 10.9657 21.7453C10.8297 21.7453 10.6938 21.7 10.6032 21.6547L9.33442 22.8781L14.636 28.1797ZM23.9704 20.975H24.0157C24.0157 21.3828 23.6532 21.7453 23.2454 21.7453H21.7954C21.4329 21.7453 21.1157 21.4281 21.0704 21.0656C20.7532 15.175 16.0407 10.4172 10.1954 10.1C9.78755 10.1 9.51567 9.78281 9.51567 9.375V7.97031C9.51567 7.5625 9.83286 7.2 10.2407 7.2C10.2407 7.2 10.2407 7.24531 10.286 7.24531C17.6719 7.60781 23.6079 13.5437 23.9704 20.975ZM19.6204 20.9297C19.6204 20.975 19.6657 20.975 19.6657 20.975C19.6657 21.3828 19.3032 21.7453 18.8954 21.7453H17.4454C17.0829 21.7453 16.7657 21.4281 16.7204 21.0656C16.4032 17.5766 13.6391 14.7672 10.15 14.4953C9.78755 14.45 9.51567 14.1328 9.51567 13.7703V12.3203C9.51567 11.9125 9.83286 11.55 10.2407 11.55C10.2407 11.55 10.2407 11.5953 10.286 11.5953C15.2704 11.9578 19.2579 15.9453 19.6204 20.9297Z" fill="#00B2BB"/>
<path d="M47.8273 16.096C47.8273 17.0859 47.5953 17.9907 47.1313 18.8104C46.6828 19.6147 45.9945 20.2643 45.0665 20.7592C44.154 21.2387 43.0326 21.4784 41.7025 21.4784H39.4521V27H34.9049V10.644H41.7025C43.0172 10.644 44.1308 10.876 45.0433 11.34C45.9713 11.804 46.6673 12.4459 47.1313 13.2656C47.5953 14.0853 47.8273 15.0288 47.8273 16.096ZM41.2617 17.8592C42.5454 17.8592 43.1873 17.2715 43.1873 16.096C43.1873 14.9051 42.5454 14.3096 41.2617 14.3096H39.4521V17.8592H41.2617ZM62.4709 13.9848V27H57.9005V25.144C57.5139 25.7317 56.9803 26.2112 56.2997 26.5824C55.6192 26.9381 54.8381 27.116 53.9565 27.116C52.4408 27.116 51.2421 26.6211 50.3605 25.6312C49.4944 24.6259 49.0613 23.2648 49.0613 21.548V13.9848H53.5853V20.968C53.5853 21.7104 53.7787 22.2981 54.1653 22.7312C54.5675 23.1488 55.0933 23.3576 55.7429 23.3576C56.408 23.3576 56.9339 23.1488 57.3205 22.7312C57.7072 22.2981 57.9005 21.7104 57.9005 20.968V13.9848H62.4709ZM69.106 9.832V27H64.5588V9.832H69.106ZM76.7403 27.1624C75.5649 27.1624 74.5131 26.9691 73.5851 26.5824C72.6726 26.1803 71.9457 25.6389 71.4043 24.9584C70.8785 24.2624 70.5846 23.4813 70.5227 22.6152H74.9307C74.9926 23.0328 75.1859 23.3576 75.5107 23.5896C75.8355 23.8216 76.2377 23.9376 76.7171 23.9376C77.0883 23.9376 77.3822 23.8603 77.5987 23.7056C77.8153 23.5509 77.9235 23.3499 77.9235 23.1024C77.9235 22.7776 77.7457 22.5379 77.3899 22.3832C77.0342 22.2285 76.4465 22.0584 75.6267 21.8728C74.6987 21.6872 73.9254 21.4784 73.3067 21.2464C72.6881 21.0144 72.1467 20.6355 71.6827 20.1096C71.2342 19.5837 71.0099 18.8723 71.0099 17.9752C71.0099 17.2019 71.2187 16.5059 71.6363 15.8872C72.0539 15.2531 72.6649 14.7504 73.4691 14.3792C74.2889 14.008 75.271 13.8224 76.4155 13.8224C78.1169 13.8224 79.4547 14.24 80.4291 15.0752C81.4035 15.9104 81.9681 17.0085 82.1227 18.3696H78.0163C77.939 17.952 77.7534 17.6349 77.4595 17.4184C77.1811 17.1864 76.8022 17.0704 76.3227 17.0704C75.9515 17.0704 75.6654 17.14 75.4643 17.2792C75.2787 17.4184 75.1859 17.6117 75.1859 17.8592C75.1859 18.1685 75.3638 18.4083 75.7195 18.5784C76.0753 18.7331 76.6475 18.8955 77.4363 19.0656C78.3798 19.2667 79.1609 19.4909 79.7795 19.7384C80.4137 19.9859 80.9627 20.388 81.4267 20.9448C81.9062 21.4861 82.1459 22.2285 82.1459 23.172C82.1459 23.9299 81.9217 24.6104 81.4731 25.2136C81.0401 25.8168 80.4137 26.2963 79.5939 26.652C78.7897 26.9923 77.8385 27.1624 76.7403 27.1624ZM96.3167 20.3416C96.3167 20.6973 96.2935 21.0531 96.2471 21.4088H87.6399C87.6863 22.1203 87.8796 22.6539 88.2199 23.0096C88.5756 23.3499 89.0241 23.52 89.5655 23.52C90.3233 23.52 90.8647 23.1797 91.1895 22.4992H96.0383C95.8372 23.3963 95.4428 24.2005 94.8551 24.912C94.2828 25.608 93.5559 26.1571 92.6743 26.5592C91.7927 26.9613 90.8183 27.1624 89.7511 27.1624C88.4673 27.1624 87.3228 26.8917 86.3175 26.3504C85.3276 25.8091 84.5465 25.0357 83.9743 24.0304C83.4175 23.0251 83.1391 21.8419 83.1391 20.4808C83.1391 19.1197 83.4175 17.9443 83.9743 16.9544C84.5311 15.9491 85.3044 15.1757 86.2943 14.6344C87.2996 14.0931 88.4519 13.8224 89.7511 13.8224C91.0348 13.8224 92.1716 14.0853 93.1615 14.6112C94.1513 15.1371 94.9247 15.8949 95.4815 16.8848C96.0383 17.8592 96.3167 19.0115 96.3167 20.3416ZM91.6767 19.2048C91.6767 18.648 91.4911 18.2149 91.1199 17.9056C90.7487 17.5808 90.2847 17.4184 89.7279 17.4184C89.1711 17.4184 88.7148 17.5731 88.3591 17.8824C88.0033 18.1763 87.7713 18.6171 87.6631 19.2048H91.6767ZM105.96 27L102.712 20.968H102.225V27H97.6776V10.644H104.846C106.161 10.644 107.275 10.876 108.187 11.34C109.1 11.7885 109.788 12.4149 110.252 13.2192C110.716 14.008 110.948 14.8973 110.948 15.8872C110.948 17.0008 110.639 17.9829 110.02 18.8336C109.417 19.6688 108.527 20.2643 107.352 20.62L111.041 27H105.96ZM102.225 17.8592H104.475C105.094 17.8592 105.558 17.7123 105.867 17.4184C106.177 17.1245 106.331 16.6992 106.331 16.1424C106.331 15.6165 106.169 15.2067 105.844 14.9128C105.535 14.6035 105.078 14.4488 104.475 14.4488H102.225V17.8592ZM118.571 27.1624C117.272 27.1624 116.104 26.8917 115.068 26.3504C114.047 25.8091 113.243 25.0357 112.655 24.0304C112.067 23.0251 111.773 21.8419 111.773 20.4808C111.773 19.1352 112.067 17.9597 112.655 16.9544C113.258 15.9491 114.07 15.1757 115.091 14.6344C116.127 14.0931 117.295 13.8224 118.594 13.8224C119.893 13.8224 121.053 14.0931 122.074 14.6344C123.111 15.1757 123.923 15.9491 124.51 16.9544C125.113 17.9597 125.415 19.1352 125.415 20.4808C125.415 21.8264 125.113 23.0096 124.51 24.0304C123.923 25.0357 123.111 25.8091 122.074 26.3504C121.038 26.8917 119.87 27.1624 118.571 27.1624ZM118.571 23.2184C119.205 23.2184 119.731 22.9864 120.149 22.5224C120.582 22.0429 120.798 21.3624 120.798 20.4808C120.798 19.5992 120.582 18.9264 120.149 18.4624C119.731 17.9984 119.213 17.7664 118.594 17.7664C117.976 17.7664 117.457 17.9984 117.04 18.4624C116.622 18.9264 116.413 19.5992 116.413 20.4808C116.413 21.3779 116.615 22.0584 117.017 22.5224C117.419 22.9864 117.937 23.2184 118.571 23.2184ZM140.082 13.9848V27H135.511V25.144C135.125 25.7317 134.591 26.2112 133.911 26.5824C133.23 26.9381 132.449 27.116 131.567 27.116C130.052 27.116 128.853 26.6211 127.971 25.6312C127.105 24.6259 126.672 23.2648 126.672 21.548V13.9848H131.196V20.968C131.196 21.7104 131.39 22.2981 131.776 22.7312C132.178 23.1488 132.704 23.3576 133.354 23.3576C134.019 23.3576 134.545 23.1488 134.931 22.7312C135.318 22.2981 135.511 21.7104 135.511 20.968V13.9848H140.082ZM149.849 23.1256V27H147.877C144.552 27 142.889 25.3528 142.889 22.0584V17.7664H141.288V13.9848H142.889V10.8296H147.459V13.9848H149.826V17.7664H147.459V22.128C147.459 22.4837 147.537 22.7389 147.691 22.8936C147.861 23.0483 148.14 23.1256 148.527 23.1256H149.849ZM163.87 20.3416C163.87 20.6973 163.847 21.0531 163.8 21.4088H155.193C155.239 22.1203 155.433 22.6539 155.773 23.0096C156.129 23.3499 156.577 23.52 157.119 23.52C157.876 23.52 158.418 23.1797 158.743 22.4992H163.591C163.39 23.3963 162.996 24.2005 162.408 24.912C161.836 25.608 161.109 26.1571 160.227 26.5592C159.346 26.9613 158.371 27.1624 157.304 27.1624C156.02 27.1624 154.876 26.8917 153.871 26.3504C152.881 25.8091 152.1 25.0357 151.527 24.0304C150.971 23.0251 150.692 21.8419 150.692 20.4808C150.692 19.1197 150.971 17.9443 151.527 16.9544C152.084 15.9491 152.858 15.1757 153.847 14.6344C154.853 14.0931 156.005 13.8224 157.304 13.8224C158.588 13.8224 159.725 14.0853 160.715 14.6112C161.704 15.1371 162.478 15.8949 163.035 16.8848C163.591 17.8592 163.87 19.0115 163.87 20.3416ZM159.23 19.2048C159.23 18.648 159.044 18.2149 158.673 17.9056C158.302 17.5808 157.838 17.4184 157.281 17.4184C156.724 17.4184 156.268 17.5731 155.912 17.8824C155.556 18.1763 155.324 18.6171 155.216 19.2048H159.23Z" fill="#1F2A30"/>
</svg>
