<svg width="147" height="34" viewBox="0 0 147 34" fill="none" xmlns="http://www.w3.org/2000/svg">
<path d="M13.1221 24.2095C13.4064 24.4938 13.3658 25.022 13.0002 25.2251C9.83144 26.9313 5.80957 26.4438 3.16895 23.7626C0.487695 21.122 0.000195339 17.1001 1.70645 13.9313C1.90957 13.5657 2.4377 13.5251 2.72207 13.8095L7.4752 18.5626L8.57207 17.4251C8.53145 17.3438 8.53145 17.222 8.53145 17.1407C8.53145 16.4095 9.1002 15.8407 9.83144 15.8407C10.5221 15.8407 11.1314 16.4095 11.1314 17.1407C11.1314 17.8313 10.5221 18.4407 9.83144 18.4407C9.70957 18.4407 9.58769 18.4001 9.50644 18.3595L8.36895 19.4563L13.1221 24.2095ZM21.4908 17.7501H21.5314C21.5314 18.1157 21.2064 18.4407 20.8408 18.4407H19.5408C19.2158 18.4407 18.9314 18.1563 18.8908 17.8313C18.6064 12.5501 14.3814 8.28447 9.14082 8.0001C8.7752 8.0001 8.53145 7.71572 8.53145 7.3501V6.09072C8.53145 5.7251 8.81582 5.4001 9.18145 5.4001C9.18145 5.4001 9.18145 5.44072 9.22207 5.44072C15.8439 5.76572 21.1658 11.0876 21.4908 17.7501ZM17.5908 17.7095C17.5908 17.7501 17.6314 17.7501 17.6314 17.7501C17.6314 18.1157 17.3064 18.4407 16.9408 18.4407H15.6408C15.3158 18.4407 15.0314 18.1563 14.9908 17.8313C14.7064 14.7032 12.2283 12.1845 9.1002 11.9407C8.7752 11.9001 8.53145 11.6157 8.53145 11.2907V9.99072C8.53145 9.6251 8.81582 9.3001 9.18145 9.3001C9.18145 9.3001 9.18145 9.34072 9.22207 9.34072C13.6908 9.66572 17.2658 13.2407 17.5908 17.7095Z" fill="#00B2BB"/>
<path d="M41.7817 14.224C41.7817 15.1115 41.5737 15.9227 41.1576 16.6576C40.7555 17.3787 40.1384 17.9611 39.3064 18.4048C38.4883 18.8347 37.483 19.0496 36.2904 19.0496H34.2728V24H30.196V9.336H36.2904C37.4691 9.336 38.4675 9.544 39.2857 9.96C40.1177 10.376 40.7417 10.9515 41.1576 11.6864C41.5737 12.4213 41.7817 13.2672 41.7817 14.224ZM35.8953 15.8048C37.0462 15.8048 37.6217 15.2779 37.6217 14.224C37.6217 13.1563 37.0462 12.6224 35.8953 12.6224H34.2728V15.8048H35.8953ZM54.8587 12.3312V24H50.7611V22.336C50.4144 22.8629 49.936 23.2928 49.3259 23.6256C48.7158 23.9445 48.0155 24.104 47.2251 24.104C45.8662 24.104 44.7915 23.6603 44.0011 22.7728C43.2246 21.8715 42.8363 20.6512 42.8363 19.112V12.3312H46.8923V18.592C46.8923 19.2576 47.0656 19.7845 47.4123 20.1728C47.7728 20.5472 48.2443 20.7344 48.8267 20.7344C49.423 20.7344 49.8944 20.5472 50.2411 20.1728C50.5878 19.7845 50.7611 19.2576 50.7611 18.592V12.3312H54.8587ZM60.7557 8.608V24H56.6789V8.608H60.7557ZM67.5485 24.1456C66.4946 24.1456 65.5517 23.9723 64.7197 23.6256C63.9016 23.2651 63.2498 22.7797 62.7645 22.1696C62.293 21.5456 62.0296 20.8453 61.9741 20.0688H65.9261C65.9816 20.4432 66.1549 20.7344 66.4461 20.9424C66.7373 21.1504 67.0978 21.2544 67.5277 21.2544C67.8605 21.2544 68.124 21.1851 68.3181 21.0464C68.5122 20.9077 68.6093 20.7275 68.6093 20.5056C68.6093 20.2144 68.4498 19.9995 68.1309 19.8608C67.812 19.7221 67.285 19.5696 66.5501 19.4032C65.7181 19.2368 65.0248 19.0496 64.4701 18.8416C63.9154 18.6336 63.4301 18.2939 63.0141 17.8224C62.612 17.3509 62.4109 16.7131 62.4109 15.9088C62.4109 15.2155 62.5981 14.5915 62.9725 14.0368C63.3469 13.4683 63.8946 13.0176 64.6157 12.6848C65.3506 12.352 66.2312 12.1856 67.2573 12.1856C68.7826 12.1856 69.9821 12.56 70.8557 13.3088C71.7293 14.0576 72.2354 15.0421 72.3741 16.2624H68.6925C68.6232 15.888 68.4568 15.6037 68.1933 15.4096C67.9437 15.2016 67.604 15.0976 67.1741 15.0976C66.8413 15.0976 66.5848 15.16 66.4045 15.2848C66.2381 15.4096 66.1549 15.5829 66.1549 15.8048C66.1549 16.0821 66.3144 16.2971 66.6333 16.4496C66.9522 16.5883 67.4653 16.7339 68.1725 16.8864C69.0184 17.0667 69.7186 17.2677 70.2733 17.4896C70.8418 17.7115 71.3341 18.072 71.7501 18.5712C72.18 19.0565 72.3949 19.7221 72.3949 20.568C72.3949 21.2475 72.1938 21.8576 71.7917 22.3984C71.4034 22.9392 70.8418 23.3691 70.1069 23.688C69.3858 23.9931 68.533 24.1456 67.5485 24.1456ZM85.048 18.0304C85.048 18.3493 85.0272 18.6683 84.9856 18.9872H77.2688C77.3104 19.6251 77.4837 20.1035 77.7888 20.4224C78.1077 20.7275 78.5098 20.88 78.9952 20.88C79.6746 20.88 80.16 20.5749 80.4512 19.9648H84.7984C84.6181 20.7691 84.2645 21.4901 83.7376 22.128C83.2245 22.752 82.5728 23.2443 81.7824 23.6048C80.992 23.9653 80.1184 24.1456 79.1616 24.1456C78.0106 24.1456 76.9845 23.9029 76.0832 23.4176C75.1957 22.9323 74.4954 22.2389 73.9824 21.3376C73.4832 20.4363 73.2336 19.3755 73.2336 18.1552C73.2336 16.9349 73.4832 15.8811 73.9824 14.9936C74.4816 14.0923 75.1749 13.3989 76.0624 12.9136C76.9637 12.4283 77.9968 12.1856 79.1616 12.1856C80.3125 12.1856 81.3317 12.4213 82.2192 12.8928C83.1066 13.3643 83.8 14.0437 84.2992 14.9312C84.7984 15.8048 85.048 16.8379 85.048 18.0304ZM80.888 17.0112C80.888 16.512 80.7216 16.1237 80.3888 15.8464C80.056 15.5552 79.64 15.4096 79.1408 15.4096C78.6416 15.4096 78.2325 15.5483 77.9136 15.8256C77.5946 16.0891 77.3866 16.4843 77.2896 17.0112H80.888ZM93.642 24L90.73 18.592H90.2932V24H86.2164V9.336H92.6436C93.8222 9.336 94.8206 9.544 95.6388 9.96C96.4569 10.3621 97.074 10.9237 97.49 11.6448C97.906 12.352 98.114 13.1493 98.114 14.0368C98.114 15.0352 97.8366 15.9157 97.282 16.6784C96.7412 17.4272 95.9438 17.9611 94.89 18.28L98.1972 24H93.642ZM90.2932 15.8048H92.3108C92.8654 15.8048 93.2814 15.6731 93.5588 15.4096C93.8361 15.1461 93.9748 14.7648 93.9748 14.2656C93.9748 13.7941 93.8292 13.4267 93.538 13.1632C93.2606 12.8859 92.8516 12.7472 92.3108 12.7472H90.2932V15.8048ZM104.897 24.1456C103.732 24.1456 102.685 23.9029 101.756 23.4176C100.841 22.9323 100.12 22.2389 99.5927 21.3376C99.0658 20.4363 98.8023 19.3755 98.8023 18.1552C98.8023 16.9488 99.0658 15.8949 99.5927 14.9936C100.134 14.0923 100.862 13.3989 101.777 12.9136C102.706 12.4283 103.753 12.1856 104.918 12.1856C106.082 12.1856 107.122 12.4283 108.038 12.9136C108.967 13.3989 109.695 14.0923 110.222 14.9936C110.762 15.8949 111.033 16.9488 111.033 18.1552C111.033 19.3616 110.762 20.4224 110.222 21.3376C109.695 22.2389 108.967 22.9323 108.038 23.4176C107.108 23.9029 106.062 24.1456 104.897 24.1456ZM104.897 20.6096C105.465 20.6096 105.937 20.4016 106.311 19.9856C106.699 19.5557 106.894 18.9456 106.894 18.1552C106.894 17.3648 106.699 16.7616 106.311 16.3456C105.937 15.9296 105.472 15.7216 104.918 15.7216C104.363 15.7216 103.898 15.9296 103.524 16.3456C103.15 16.7616 102.962 17.3648 102.962 18.1552C102.962 18.9595 103.143 19.5696 103.503 19.9856C103.864 20.4016 104.328 20.6096 104.897 20.6096ZM124.131 12.3312V24H120.033V22.336C119.686 22.8629 119.208 23.2928 118.598 23.6256C117.988 23.9445 117.287 24.104 116.497 24.104C115.138 24.104 114.063 23.6603 113.273 22.7728C112.496 21.8715 112.108 20.6512 112.108 19.112V12.3312H116.164V18.592C116.164 19.2576 116.337 19.7845 116.684 20.1728C117.045 20.5472 117.516 20.7344 118.099 20.7344C118.695 20.7344 119.166 20.5472 119.513 20.1728C119.86 19.7845 120.033 19.2576 120.033 18.592V12.3312H124.131ZM132.836 20.5264V24H131.068C128.086 24 126.596 22.5232 126.596 19.5696V15.7216H125.16V12.3312H126.596V9.5024H130.693V12.3312H132.815V15.7216H130.693V19.632C130.693 19.9509 130.762 20.1797 130.901 20.3184C131.054 20.4571 131.303 20.5264 131.65 20.5264H132.836ZM145.354 18.0304C145.354 18.3493 145.333 18.6683 145.292 18.9872H137.575C137.617 19.6251 137.79 20.1035 138.095 20.4224C138.414 20.7275 138.816 20.88 139.301 20.88C139.981 20.88 140.466 20.5749 140.757 19.9648H145.105C144.924 20.7691 144.571 21.4901 144.044 22.128C143.531 22.752 142.879 23.2443 142.089 23.6048C141.298 23.9653 140.425 24.1456 139.468 24.1456C138.317 24.1456 137.291 23.9029 136.389 23.4176C135.502 22.9323 134.802 22.2389 134.289 21.3376C133.789 20.4363 133.54 19.3755 133.54 18.1552C133.54 16.9349 133.789 15.8811 134.289 14.9936C134.788 14.0923 135.481 13.3989 136.369 12.9136C137.27 12.4283 138.303 12.1856 139.468 12.1856C140.619 12.1856 141.638 12.4213 142.525 12.8928C143.413 13.3643 144.106 14.0437 144.605 14.9312C145.105 15.8048 145.354 16.8379 145.354 18.0304ZM141.194 17.0112C141.194 16.512 141.028 16.1237 140.695 15.8464C140.362 15.5552 139.946 15.4096 139.447 15.4096C138.948 15.4096 138.539 15.5483 138.22 15.8256C137.901 16.0891 137.693 16.4843 137.596 17.0112H141.194Z" fill="#1F2A30"/>
</svg>
